Coordinates
version=1
nRows=7
nColumns=46
inDegrees=yes

Units are S.I. units (second, meters, Newtons, ...)
Angles are in degrees.

endheader
time	pelvis_tilt	pelvis_list	pelvis_rotation	pelvis_tx	pelvis_ty	pelvis_tz	bb_angle	bb_tx	bb_ty	bb_tz	hip_flexion_r	hip_adduction_r	hip_rotation_r	knee_angle_r	knee_angle_r_beta	ankle_angle_r	subtalar_angle_r	mtp_angle_r	crank_angle_r	hip_flexion_l	hip_adduction_l	hip_rotation_l	knee_angle_l	knee_angle_l_beta	ankle_angle_l	subtalar_angle_l	mtp_angle_l	crank_angle_l	lumbar_extension	lumbar_bending	lumbar_rotation	arm_flex_r	arm_add_r	arm_rot_r	elbow_flex_r	pro_sup_r	wrist_flex_r	wrist_dev_r	arm_flex_l	arm_add_l	arm_rot_l	elbow_flex_l	pro_sup_l	wrist_flex_l	wrist_dev_l
      0.00000000	    -17.75030109	      3.41150833	      3.73071361	      0.13050661	      1.11567323	     -0.29308928	      0.00000000	      0.50000000	      0.00000000	      0.25000000	     47.54238440	    -10.60348662	     -1.56981349	     57.99986576	      1.01228862	      5.05274133	     -6.27769049	      0.00000000	      0.00000000	     88.93449869	     -8.50330514	     -4.92775585	     97.22818142	      1.69695189	     19.31762178	      5.30963628	      0.00000000	      0.00000000	    -41.16308444	      0.01141783	     -6.43120529	     80.39992020	     -4.74024139	     45.12823557	     22.13223645	     42.14393345	      0.00000000	      0.00000000	     79.88621016	    -14.43531731	     56.43205437	     22.41655523	     45.23207331	      0.00000000	      0.00000000
      0.00500000	    -17.78033985	      3.36045308	      3.64701460	      0.13047361	      1.11560285	     -0.29309667	      0.00000000	      0.50000000	      0.00000000	      0.25000000	     47.60387158	    -10.49976187	     -1.52922341	     58.08644515	      1.01379972	      5.07497746	     -6.31962942	      0.00000000	      0.00000000	     88.91194908	     -8.57447905	     -4.89263062	     97.12482719	      1.69514802	     19.44212706	      5.35613032	      0.00000000	      0.00000000	    -41.10881747	      0.02580499	     -6.35113428	     80.38691217	     -4.49241799	     44.27743605	     21.83306352	     41.94703993	      0.00000000	      0.00000000	     79.60208990	    -14.17496736	     54.74722045	     22.41291375	     44.88976694	      0.00000000	      0.00000000
      0.01000000	    -17.83798531	      3.31279205	      3.58492594	      0.13037023	      1.11551653	     -0.29322049	      0.00000000	      0.50000000	      0.00000000	      0.25000000	     47.71332997	    -10.42293429	     -1.50016653	     58.17909454	      1.01541676	      5.05316592	     -6.39889570	      0.00000000	      0.00000000	     88.92757970	     -8.59512396	     -4.85993495	     97.02434718	      1.69339431	     19.47443966	      5.25721028	      0.00000000	      0.00000000	    -41.04730643	      0.04447849	     -6.27771965	     80.38918823	     -4.35196274	     43.70745569	     21.70663500	     41.92672085	      0.00000000	      0.00000000	     79.44495019	    -13.95688296	     53.69434627	     22.43132390	     44.74165428	      0.00000000	      0.00000000
      0.01500000	    -17.77946023	      3.28199566	      3.50314964	      0.13034969	      1.11576759	     -0.29327347	      0.00000000	      0.50000000	      0.00000000	      0.25000000	     47.65701520	    -10.33192504	     -1.44240706	     58.21121791	      1.01597741	      5.07466533	     -6.40312823	      0.00000000	      0.00000000	     88.77742882	     -8.66834619	     -4.86209790	     96.89752130	      1.69118078	     19.62242877	      5.36396371	      0.00000000	      0.00000000	    -41.16061932	      0.01216115	     -6.11781631	     80.46154227	     -5.37822496	     46.66702494	     22.64920049	     42.80820443	      0.00000000	      0.00000000	     80.06538326	    -14.50942096	     57.67684634	     22.25237244	     45.78713485	      0.00000000	      0.00000000
      0.02000000	    -17.89005308	      3.14438081	      3.43580429	      0.13028946	      1.11582458	     -0.29338429	      0.00000000	      0.50000000	      0.00000000	      0.25000000	     47.79163151	    -10.15167836	     -1.41915374	     58.22969059	      1.01629982	      4.94958371	     -6.48943099	      0.00000000	      0.00000000	     88.83892833	     -8.70748026	     -4.74049322	     96.76598579	      1.68888506	     19.71648711	      5.34739803	      0.00000000	      0.00000000	    -41.04366115	      0.13205273	     -6.03159988	     80.34426826	     -4.74568756	     44.27842148	     22.29781923	     42.53842817	      0.00000000	      0.00000000	     79.59145014	    -14.03902316	     54.65441363	     22.34979353	     45.24729183	      0.00000000	      0.00000000
      0.02500000	    -17.86715797	      3.18312130	      3.42720048	      0.13009570	      1.11606794	     -0.29340244	      0.00000000	      0.50000000	      0.00000000	      0.25000000	     47.82955130	    -10.17743667	     -1.36618024	     58.31773235	      1.01783644	      4.91127404	     -6.44756149	      0.00000000	      0.00000000	     88.71161830	     -8.67404362	     -4.79181866	     96.60760674	      1.68612082	     19.79044918	      5.34001422	      0.00000000	      0.00000000	    -41.12008925	      0.07233654	     -6.05574474	     80.51426638	     -5.26778228	     46.47802516	     22.55606631	     42.95999624	      0.00000000	      0.00000000	     80.03209534	    -14.45203280	     57.17356502	     22.25971528	     45.87654891	      0.00000000	      0.00000000
      0.03000000	    -17.89016191	      3.11824782	      3.40343408	      0.12997081	      1.11614454	     -0.29352151	      0.00000000	      0.50000000	      0.00000000	      0.25000000	     47.90434481	    -10.11609373	     -1.37991168	     58.39627666	      1.01920730	      4.76912175	     -6.53021172	      0.00000000	      0.00000000	     88.68121000	     -8.67209155	     -4.75428830	     96.48854890	      1.68404287	     19.87056420	      5.28526091	      0.00000000	      0.00000000	    -41.10087061	      0.13202237	     -6.03607874	     80.49638094	     -4.89747597	     45.39270611	     22.24851436	     42.67358573	      0.00000000	      0.00000000	     79.82400546	    -14.14282002	     55.50085032	     22.23008434	     45.36626512	      0.00000000	      0.00000000
